# xmcd CD database file
#
# Track frame offsets:
#	182
#	14885
#	34420
#	46060
#	61685
#	75662
#	92430
#	102107
#	114365
#	133710
#	146987
#	162595
#
# Disc length: 2369 seconds
#
# Revision: 0
# Processed by: cddbd v1.4PL0 Copyright (c) Steve Scherf et al.
# Submitted via: CDex 1.50beta9
#
DISCID=9e093f0c
DTITLE=Frank McCaffrey - A Place In My Heart
DYEAR=1989
DGENRE=Country
TTITLE0=The Clock In The Tower
TTITLE1=A Place In My Heart
TTITLE2=The Day The World Stood Still
TTITLE3=Drive Safely Darling
TTITLE4=I'd Rather Be Sorry
TTITLE5=Annie's Story
TTITLE6=The Black Board Of My Heart
TTITLE7=All Alone In New York City
TTITLE8=It's Our Anniversary
TTITLE9=Give A Lonely Heart A Home
TTITLE10=The Rose
TTITLE11=Always Mayo
EXTD=YEAR: 1989
EXTT0=
EXTT1=
EXTT2=
EXTT3=
EXTT4=
EXTT5=
EXTT6=
EXTT7=
EXTT8=
EXTT9=
EXTT10=
EXTT11=
PLAYORDER=
